<?xml version="1.0" encoding="UTF-8" standalone="no"?>
<svg
   xmlns:dc="http://purl.org/dc/elements/1.1/"
   xmlns:cc="http://creativecommons.org/ns#"
   xmlns:rdf="http://www.w3.org/1999/02/22-rdf-syntax-ns#"
   xmlns:svg="http://www.w3.org/2000/svg"
   xmlns="http://www.w3.org/2000/svg"
   xmlns:sodipodi="http://sodipodi.sourceforge.net/DTD/sodipodi-0.dtd"
   xmlns:inkscape="http://www.inkscape.org/namespaces/inkscape"
   inkscape:version="1.0 (4035a4fb49, 2020-05-01)"
   sodipodi:docname="24-hours.svg"
   xml:space="preserve"
   style="enable-background:new 0 0 512 512;"
   viewBox="0 0 512 512"
   y="0px"
   x="0px"
   id="Capa_1"
   version="1.1"><metadata
   id="metadata115"><rdf:RDF><cc:Work
       rdf:about=""><dc:format>image/svg+xml</dc:format><dc:type
         rdf:resource="http://purl.org/dc/dcmitype/StillImage" /></cc:Work></rdf:RDF></metadata><defs
   id="defs113" /><sodipodi:namedview
   inkscape:current-layer="Capa_1"
   inkscape:window-maximized="0"
   inkscape:window-y="0"
   inkscape:window-x="0"
   inkscape:cy="233.6381"
   inkscape:cx="237.38913"
   inkscape:zoom="1.0150849"
   showgrid="false"
   id="namedview111"
   inkscape:window-height="861"
   inkscape:window-width="1416"
   inkscape:pageshadow="2"
   inkscape:pageopacity="0"
   guidetolerance="10"
   gridtolerance="10"
   objecttolerance="10"
   borderopacity="1"
   bordercolor="#666666"
   pagecolor="#ffffff" />
<g
   style="fill:#ffffff"
   id="g6">
	<g
   style="fill:#ffffff"
   id="g4">
		<path
   style="fill:#ffffff"
   id="path2"
   d="M266,223.503v-86.995c0-5.522-4.477-10-10-10s-10,4.478-10,10v86.995c-2.057,0.634-4.028,1.462-5.899,2.456l-27.53-27.53    c-3.905-3.904-10.237-3.904-14.143,0c-3.905,3.905-3.905,10.237,0,14.143l27.53,27.53C223.436,244.849,222,250.259,222,256    c0,18.748,15.252,34,34,34s34-15.252,34-34C290,240.731,279.882,227.783,266,223.503z M256,270c-7.72,0-14-6.28-14-14    c0-7.72,6.28-14,14-14c7.72,0,14,6.28,14,14C270,263.719,263.72,270,256,270z" />
	</g>
</g>
<g
   style="fill:#ffffff"
   id="g12">
	<g
   style="fill:#ffffff"
   id="g10">
		<path
   style="fill:#ffffff"
   id="path8"
   d="M367.476,208.342h-27.4v-7c0-3.859,3.14-7,7-7h3.4c14.888,0,27-12.112,27-27s-12.112-27-27-27h-20.4    c-5.523,0-10,4.478-10,10c0,5.522,4.477,10,10,10h20.4c3.86,0,7,3.141,7,7s-3.141,7-7,7h-3.4c-14.888,0-27,12.112-27,27v17    c0,5.522,4.477,10,10,10h37.4c5.523,0,10-4.478,10-10C377.476,212.82,372.999,208.342,367.476,208.342z" />
	</g>
</g>
<g
   style="fill:#ffffff"
   id="g18">
	<g
   style="fill:#ffffff"
   id="g16">
		<path
   style="fill:#ffffff"
   id="path14"
   d="M435.008,137.352c-5.523,0-10,4.478-10,10v27.399h-17.4v-27.399c0-5.522-4.477-10-10-10s-10,4.478-10,10v37.399    c0,5.522,4.477,10,10,10h27.4v23.591c0,5.522,4.477,10,10,10s10-4.478,10-10v-70.99    C445.008,141.83,440.531,137.352,435.008,137.352z" />
	</g>
</g>
<g
   style="fill:#ffffff"
   id="g24">
	<g
   style="fill:#ffffff"
   id="g22">
		<path
   style="fill:#ffffff"
   id="path20"
   d="M476.471,170.942H474.6v-23.59c0-5.522-4.477-10-10-10s-10,4.478-10,10v70.99c0,5.522,4.477,10,10,10s10-4.478,10-10    v-27.4h1.871c8.563,0,15.529,6.967,15.529,15.529v11.871c0,5.522,4.477,10,10,10s10-4.478,10-10v-11.871    C512,186.881,496.062,170.942,476.471,170.942z" />
	</g>
</g>
<g
   style="fill:#ffffff"
   id="g30">
	<g
   style="fill:#ffffff"
   id="g28">
		<path
   style="fill:#ffffff"
   id="path26"
   d="M262.68,415.26c-1.86-1.861-4.44-2.93-7.07-2.93s-5.21,1.069-7.07,2.93c-1.86,1.86-2.93,4.44-2.93,7.07    c0,2.64,1.07,5.21,2.93,7.069c1.86,1.87,4.44,2.931,7.07,2.931s5.21-1.061,7.07-2.931c1.86-1.859,2.93-4.439,2.93-7.069    S264.54,417.12,262.68,415.26z" />
	</g>
</g>
<g
   style="fill:#ffffff"
   id="g36">
	<g
   style="fill:#ffffff"
   id="g34">
		<path
   style="fill:#ffffff"
   id="path32"
   d="M145.07,366.54c-1.86-1.86-4.44-2.931-7.07-2.931c-2.64,0-5.21,1.07-7.07,2.931c-1.87,1.859-2.93,4.439-2.93,7.08    c0,2.63,1.06,5.21,2.93,7.069c1.86,1.86,4.43,2.931,7.07,2.931c2.63,0,5.2-1.07,7.07-2.931c1.86-1.87,2.93-4.439,2.93-7.069    C148,370.979,146.93,368.41,145.07,366.54z" />
	</g>
</g>
<g
   style="fill:#ffffff"
   id="g42">
	<g
   style="fill:#ffffff"
   id="g40">
		<path
   style="fill:#ffffff"
   id="path38"
   d="M96.35,248.929c-1.86-1.86-4.44-2.93-7.07-2.93c-2.63,0-5.21,1.07-7.07,2.93c-1.87,1.86-2.93,4.44-2.93,7.07    c0,2.63,1.06,5.21,2.93,7.069c1.86,1.86,4.44,2.931,7.07,2.931c2.63,0,5.21-1.07,7.07-2.931c1.86-1.859,2.93-4.439,2.93-7.069    C99.28,253.369,98.21,250.789,96.35,248.929z" />
	</g>
</g>
<g
   style="fill:#ffffff"
   id="g48">
	<g
   style="fill:#ffffff"
   id="g46">
		<path
   style="fill:#ffffff"
   id="path44"
   d="M145.07,131.31c-1.86-1.859-4.44-2.93-7.07-2.93c-2.64,0-5.21,1.07-7.07,2.93c-1.87,1.87-2.93,4.44-2.93,7.07    s1.06,5.21,2.93,7.08c1.86,1.859,4.43,2.93,7.07,2.93c2.63-0.001,5.2-1.071,7.07-2.93c1.86-1.87,2.93-4.44,2.93-7.08    C148,135.75,146.93,133.17,145.07,131.31z" />
	</g>
</g>
<g
   style="fill:#ffffff"
   id="g54">
	<g
   style="fill:#ffffff"
   id="g52">
		<path
   style="fill:#ffffff"
   id="path50"
   d="M262.68,82.6c-1.86-1.87-4.43-2.93-7.07-2.93c-2.63,0-5.21,1.06-7.07,2.93c-1.86,1.86-2.93,4.431-2.93,7.07    c0,2.63,1.07,5.21,2.93,7.07c1.86,1.859,4.44,2.93,7.07,2.93c2.64,0,5.21-1.07,7.07-2.93s2.93-4.44,2.93-7.07    S264.54,84.46,262.68,82.6z" />
	</g>
</g>
<g
   style="fill:#ffffff"
   id="g60">
	<g
   style="fill:#ffffff"
   id="g58">
		<path
   style="fill:#ffffff"
   id="path56"
   d="M380.3,366.54c-1.86-1.86-4.44-2.931-7.07-2.931c-2.64,0-5.21,1.07-7.08,2.931c-1.86,1.87-2.92,4.439-2.92,7.08    c0,2.63,1.06,5.199,2.92,7.069c1.87,1.86,4.45,2.931,7.08,2.931s5.21-1.07,7.07-2.931c1.86-1.87,2.93-4.439,2.93-7.069    C383.23,370.979,382.16,368.41,380.3,366.54z" />
	</g>
</g>
<g
   style="fill:#ffffff"
   id="g66">
	<g
   style="fill:#ffffff"
   id="g64">
		<path
   style="fill:#ffffff"
   id="path62"
   d="M502,246h-46c-5.523,0-10,4.478-10,10c0,104.766-85.233,189.999-189.999,190c-50.909,0-98.666-19.72-134.474-55.527    C85.72,354.665,66,306.907,66,255.999C66.001,151.233,151.234,66,256,66c22.699,0,44.735,3.917,65.696,11.661l-14.268,14.268    c-2.86,2.86-3.715,7.161-2.167,10.898c1.548,3.736,5.194,6.173,9.239,6.173h88.644c5.523,0,10-4.478,10-10V10.356    c0-4.045-2.437-7.691-6.173-9.238c-3.735-1.548-8.037-0.692-10.898,2.167L371.75,27.607    C336.695,9.831,297.526,0.308,257.989,0.006C203.027-0.371,150.362,16.682,105.64,49.439c-4.455,3.264-5.422,9.521-2.158,13.977    c3.263,4.456,9.52,5.423,13.977,2.158C158.193,35.738,206.067,20,256.027,20c0.602,0,1.208,0.002,1.81,0.007    c38.775,0.295,77.154,10.205,110.989,28.658c3.895,2.124,8.722,1.429,11.859-1.708l12.458-12.458V89h-54.501l7.778-7.778    c2.314-2.314,3.35-5.615,2.771-8.837c-0.579-3.222-2.696-5.957-5.67-7.322C315.969,52.413,286.522,46,256,46    C140.207,46,46.001,140.205,46,255.999c0,56.251,21.8,109.03,61.385,148.615C146.971,444.2,199.75,466.001,256.001,466    c112.444-0.001,204.529-88.829,209.764-200h26.026C486.53,391.508,382.779,492,256,492C125.87,492,20.001,386.132,20,256.002    c0-47.236,14.219-92.977,41.122-132.276c3.12-4.557,1.954-10.78-2.603-13.9c-4.558-3.121-10.781-1.955-13.901,2.604    C15.428,155.069,0,204.716,0,256.002c0,68.38,26.629,132.667,74.981,181.019S187.62,512,256,512s132.667-26.629,181.02-74.98    S512,324.38,512,256C512,250.477,507.523,246,502,246z" />
	</g>
</g>
<g
   style="fill:#ffffff"
   id="g72">
	<g
   style="fill:#ffffff"
   id="g70">
		<path
   style="fill:#ffffff"
   id="path68"
   d="M88.399,76.514c-3.905-3.904-10.237-3.904-14.143,0l-0.206,0.21c-3.834,3.976-3.749,10.337,0.227,14.171    c1.949,1.879,4.455,2.817,6.956,2.817c2.602,0,5.199-1.016,7.154-3.043l-7.059-7.083l7.071,7.071    C92.304,86.752,92.304,80.42,88.399,76.514z" />
	</g>
</g>
<g
   style="fill:#ffffff"
   id="g78">
	<g
   style="fill:#ffffff"
   id="g76">
		<path
   style="fill:#ffffff"
   id="path74"
   d="M256,369c-62.309,0-113-50.691-113-113c0-5.522-4.477-10-10-10c-5.523,0-10,4.478-10,10c0,73.337,59.664,133,133,133    c5.523,0,10-4.478,10-10C266,373.478,261.523,369,256,369z" />
	</g>
</g>
<g
   id="g80">
</g>
<g
   id="g82">
</g>
<g
   id="g84">
</g>
<g
   id="g86">
</g>
<g
   id="g88">
</g>
<g
   id="g90">
</g>
<g
   id="g92">
</g>
<g
   id="g94">
</g>
<g
   id="g96">
</g>
<g
   id="g98">
</g>
<g
   id="g100">
</g>
<g
   id="g102">
</g>
<g
   id="g104">
</g>
<g
   id="g106">
</g>
<g
   id="g108">
</g>
</svg>
