<?xml version="1.0" encoding="UTF-8" standalone="no"?>
<svg
   xmlns:dc="http://purl.org/dc/elements/1.1/"
   xmlns:cc="http://creativecommons.org/ns#"
   xmlns:rdf="http://www.w3.org/1999/02/22-rdf-syntax-ns#"
   xmlns:svg="http://www.w3.org/2000/svg"
   xmlns="http://www.w3.org/2000/svg"
   xmlns:sodipodi="http://sodipodi.sourceforge.net/DTD/sodipodi-0.dtd"
   xmlns:inkscape="http://www.inkscape.org/namespaces/inkscape"
   inkscape:version="1.0 (4035a4fb49, 2020-05-01)"
   sodipodi:docname="document-check.svg"
   xml:space="preserve"
   style="enable-background:new 0 0 60 60;"
   viewBox="0 0 60 60"
   y="0px"
   x="0px"
   id="Capa_1"
   version="1.1"><metadata
   id="metadata45"><rdf:RDF><cc:Work
       rdf:about=""><dc:format>image/svg+xml</dc:format><dc:type
         rdf:resource="http://purl.org/dc/dcmitype/StillImage" /></cc:Work></rdf:RDF></metadata><defs
   id="defs43" /><sodipodi:namedview
   inkscape:current-layer="Capa_1"
   inkscape:window-maximized="0"
   inkscape:window-y="0"
   inkscape:window-x="0"
   inkscape:cy="30"
   inkscape:cx="30"
   inkscape:zoom="12.25"
   showgrid="false"
   id="namedview41"
   inkscape:window-height="855"
   inkscape:window-width="1301"
   inkscape:pageshadow="2"
   inkscape:pageopacity="0"
   guidetolerance="10"
   gridtolerance="10"
   objecttolerance="10"
   borderopacity="1"
   bordercolor="#666666"
   pagecolor="#ffffff" />
<g
   style="fill:#ffffff"
   id="g8">
	<path
   style="fill:#ffffff"
   id="path2"
   d="m 45.5,34 c -7.168,0 -13,5.832 -13,13 0,7.168 5.832,13 13,13 7.168,0 13,-5.832 13,-13 0,-7.168 -5.832,-13 -13,-13 z m 0,24 c -6.065,0 -11,-4.935 -11,-11 0,-6.065 4.935,-11 11,-11 6.065,0 11,4.935 11,11 0,6.065 -4.935,11 -11,11 z" />
	<path
   style="fill:#ffffff"
   id="path4"
   d="m 50.679,41.429 -5.596,8.04 -3.949,-3.242 c -0.426,-0.351 -1.057,-0.288 -1.407,0.139 -0.351,0.427 -0.289,1.057 0.139,1.407 l 4.786,3.929 c 0.18,0.147 0.404,0.227 0.634,0.227 0.045,0 0.091,-0.003 0.137,-0.009 0.276,-0.039 0.524,-0.19 0.684,-0.419 l 6.214,-8.929 c 0.315,-0.453 0.204,-1.077 -0.25,-1.392 -0.454,-0.317 -1.076,-0.204 -1.392,0.249 z" />
	<path
   style="fill:#ffffff"
   id="path6"
   d="M 29.551,48 H 12.5 c -0.552,0 -1,-0.447 -1,-1 0,-0.553 0.448,-1 1,-1 h 17.051 c 0.133,-2.142 0.687,-4.167 1.584,-6 H 12.5 c -0.552,0 -1,-0.447 -1,-1 0,-0.553 0.448,-1 1,-1 h 19.782 c 2.884,-4.222 7.732,-7 13.218,-7 1.026,0 2.027,0.106 3,0.292 V 14.586 L 33.914,0 H 1.5 V 60 H 36.208 C 32.41,57.278 29.859,52.943 29.551,48 Z M 34.5,4 l 10,10 h -10 z m -22,10 h 10 c 0.552,0 1,0.447 1,1 0,0.553 -0.448,1 -1,1 h -10 c -0.552,0 -1,-0.447 -1,-1 0,-0.553 0.448,-1 1,-1 z m 0,8 h 25 c 0.552,0 1,0.447 1,1 0,0.553 -0.448,1 -1,1 h -25 c -0.552,0 -1,-0.447 -1,-1 0,-0.553 0.448,-1 1,-1 z m 0,8 h 25 c 0.552,0 1,0.447 1,1 0,0.553 -0.448,1 -1,1 h -25 c -0.552,0 -1,-0.447 -1,-1 0,-0.553 0.448,-1 1,-1 z" />
</g>
<g
   style="fill:#ffffff"
   id="g10">
</g>
<g
   style="fill:#ffffff"
   id="g12">
</g>
<g
   style="fill:#ffffff"
   id="g14">
</g>
<g
   style="fill:#ffffff"
   id="g16">
</g>
<g
   style="fill:#ffffff"
   id="g18">
</g>
<g
   style="fill:#ffffff"
   id="g20">
</g>
<g
   style="fill:#ffffff"
   id="g22">
</g>
<g
   style="fill:#ffffff"
   id="g24">
</g>
<g
   style="fill:#ffffff"
   id="g26">
</g>
<g
   style="fill:#ffffff"
   id="g28">
</g>
<g
   style="fill:#ffffff"
   id="g30">
</g>
<g
   style="fill:#ffffff"
   id="g32">
</g>
<g
   style="fill:#ffffff"
   id="g34">
</g>
<g
   style="fill:#ffffff"
   id="g36">
</g>
<g
   style="fill:#ffffff"
   id="g38">
</g>
</svg>
