<?xml version="1.0" encoding="UTF-8" standalone="no"?>
<svg
   xmlns:dc="http://purl.org/dc/elements/1.1/"
   xmlns:cc="http://creativecommons.org/ns#"
   xmlns:rdf="http://www.w3.org/1999/02/22-rdf-syntax-ns#"
   xmlns:svg="http://www.w3.org/2000/svg"
   xmlns="http://www.w3.org/2000/svg"
   xmlns:sodipodi="http://sodipodi.sourceforge.net/DTD/sodipodi-0.dtd"
   xmlns:inkscape="http://www.inkscape.org/namespaces/inkscape"
   inkscape:version="1.0 (4035a4fb49, 2020-05-01)"
   sodipodi:docname="document-transfer.svg"
   id="svg11"
   version="1.1"
   width="512"
   viewBox="0 0 51 56"
   height="512">
  <metadata
     id="metadata17">
    <rdf:RDF>
      <cc:Work
         rdf:about="">
        <dc:format>image/svg+xml</dc:format>
        <dc:type
           rdf:resource="http://purl.org/dc/dcmitype/StillImage" />
      </cc:Work>
    </rdf:RDF>
  </metadata>
  <defs
     id="defs15" />
  <sodipodi:namedview
     inkscape:current-layer="svg11"
     inkscape:window-maximized="0"
     inkscape:window-y="0"
     inkscape:window-x="0"
     inkscape:cy="256"
     inkscape:cx="256"
     inkscape:zoom="1.4355469"
     showgrid="false"
     id="namedview13"
     inkscape:window-height="480"
     inkscape:window-width="723"
     inkscape:pageshadow="2"
     inkscape:pageopacity="0"
     guidetolerance="10"
     gridtolerance="10"
     objecttolerance="10"
     borderopacity="1"
     bordercolor="#666666"
     pagecolor="#ffffff" />
  <g
     style="fill:#ffffff"
     fill-rule="evenodd"
     fill="none"
     id="Page-1">
    <g
       style="fill:#ffffff"
       transform="translate(-1)"
       fill-rule="nonzero"
       fill="rgb(0,0,0)"
       id="023---File-Upload-and-Download">
      <path
         style="fill:#ffffff"
         d="m35.317 44.5c-.8413855-.6965213-2.0804435-.613976-2.822.188l-1.743 1.991c-.2749692.3137031-.7157847.4237606-1.1059374.2761173-.3901526-.1476434-.6476667-.5219661-.6460626-.9391173v-18.016c0-1.1045695-.8954305-2-2-2s-2 .8954305-2 2v18.016c-.0004838.416236-.2587465.7886458-.6484075.9349911-.389661.1463452-.8292252.0360188-1.1035925-.2769911l-1.743-1.991c-.4680075-.5468627-1.1937727-.8000616-1.9003853-.6629903-.7066125.1370713-1.2850676.6432675-1.5146598 1.3254531-.2295922.6821857-.0749037 1.4351241.4050451 1.9715372l7 8c.3903033.4154422.9349747.6510693 1.505.6510693s1.1146967-.2356271 1.505-.6510693l7-8c.7239183-.8305033.6398585-2.0900586-.188-2.817z"
         id="Shape" />
      <path
         style="fill:#ffffff"
         d="m18.317 37.505c.8311234-.7273912.9152902-1.9907882.188-2.822l-7-8c-.3903033-.4154422-.9349747-.6510693-1.505-.6510693-.57002533 0-1.1146967.2356271-1.505.6510693l-7 8c-.47994883.5364131-.63463726 1.2893515-.40504506 1.9715372.2295922.6821856.80804723 1.1883818 1.5146598 1.3254531.70661256.1370713 1.43237779-.1161276 1.90038526-.6629903l1.743-1.991c.27436726-.3130099.71393155-.4233363 1.10359253-.2769911.38966098.1463453.64792366.5187551.64840747.9349911v18.016c0 1.1045695.8954305 2 2 2s2-.8954305 2-2v-18.016c.0004838-.416236.2587465-.7886458.6484075-.9349911.389661-.1463452.8292252-.0360188 1.1035925.2769911l1.748 1.991c.7409971.798882 1.9764161.881331 2.817.188z"
         id="path3" />
      <path
         style="fill:#ffffff"
         d="m42 47v5.586l8.586-8.586h-5.586c-1.6568542 0-3 1.3431458-3 3z"
         id="path5" />
      <path
         style="fill:#ffffff"
         d="m49 0h-40c-1.65685425 0-3 1.34314575-3 3v23.5l.99-1.131c.7595464-.8678491 1.85671221-1.365631 3.01-1.365631 1.1532878 0 2.2504536.4977819 3.01 1.365631l7 8c1.3966122 1.6656098 1.2074826 4.1416793-.4259 5.5758491-1.6333826 1.4341697-4.1131162 1.3014597-5.5841-.2988491v15.354h7.685l-4.695-5.366c-1.4450358-1.6609718-1.2762065-4.1774271.3777501-5.6304872 1.6539565-1.45306 4.1711997-1.2964154 5.6322499.3504872v-15.354c0-2.209139 1.790861-4 4-4s4 1.790861 4 4v15.354c.9431812-1.0737617 2.3875616-1.5627773 3.7890571-1.2828394 1.4014955.279938 2.5471856 1.2863003 3.0055 2.64.4583143 1.3536998.1596241 2.8490777-.7835571 3.9228394l-4.696 5.366h7.685v-7c.0033061-2.7600532 2.2399468-4.9966939 5-5h7v-39c0-1.65685425-1.3431458-3-3-3zm-36 18h-2c-.5522847 0-1-.4477153-1-1s.4477153-1 1-1h2c.5522847 0 1 .4477153 1 1s-.4477153 1-1 1zm0-6h-2c-.5522847 0-1-.4477153-1-1s.4477153-1 1-1h2c.5522847 0 1 .4477153 1 1s-.4477153 1-1 1zm0-6h-2c-.5522847 0-1-.44771525-1-1s.4477153-1 1-1h2c.5522847 0 1 .44771525 1 1s-.4477153 1-1 1zm20 12h-16c-.5522847 0-1-.4477153-1-1s.4477153-1 1-1h16c.5522847 0 1 .4477153 1 1s-.4477153 1-1 1zm7-6h-23c-.5522847 0-1-.4477153-1-1s.4477153-1 1-1h23c.5522847 0 1 .4477153 1 1s-.4477153 1-1 1zm7-6h-30c-.5522847 0-1-.44771525-1-1s.4477153-1 1-1h30c.5522847 0 1 .44771525 1 1s-.4477153 1-1 1zm3 33c0 .5522847-.4477153 1-1 1s-1-.4477153-1-1v-2c0-.5522847.4477153-1 1-1s1 .4477153 1 1zm0-6c0 .5522847-.4477153 1-1 1s-1-.4477153-1-1v-14c0-.5522847.4477153-1 1-1s1 .4477153 1 1z"
         id="path7" />
    </g>
  </g>
</svg>
