<?xml version="1.0" encoding="UTF-8" standalone="no"?>
<svg
   xmlns:dc="http://purl.org/dc/elements/1.1/"
   xmlns:cc="http://creativecommons.org/ns#"
   xmlns:rdf="http://www.w3.org/1999/02/22-rdf-syntax-ns#"
   xmlns:svg="http://www.w3.org/2000/svg"
   xmlns="http://www.w3.org/2000/svg"
   xmlns:sodipodi="http://sodipodi.sourceforge.net/DTD/sodipodi-0.dtd"
   xmlns:inkscape="http://www.inkscape.org/namespaces/inkscape"
   inkscape:version="1.0 (4035a4fb49, 2020-05-01)"
   sodipodi:docname="monitor.svg"
   id="svg9"
   version="1.1"
   width="512"
   viewBox="0 0 56 56"
   height="512">
  <metadata
     id="metadata15">
    <rdf:RDF>
      <cc:Work
         rdf:about="">
        <dc:format>image/svg+xml</dc:format>
        <dc:type
           rdf:resource="http://purl.org/dc/dcmitype/StillImage" />
      </cc:Work>
    </rdf:RDF>
  </metadata>
  <defs
     id="defs13" />
  <sodipodi:namedview
     inkscape:current-layer="svg9"
     inkscape:window-maximized="0"
     inkscape:window-y="0"
     inkscape:window-x="0"
     inkscape:cy="256"
     inkscape:cx="256"
     inkscape:zoom="1.4355469"
     showgrid="false"
     id="namedview11"
     inkscape:window-height="480"
     inkscape:window-width="723"
     inkscape:pageshadow="2"
     inkscape:pageopacity="0"
     guidetolerance="10"
     gridtolerance="10"
     objecttolerance="10"
     borderopacity="1"
     bordercolor="#666666"
     pagecolor="#ffffff" />
  <g
     style="fill:#ffffff"
     fill-rule="evenodd"
     fill="none"
     id="Page-1">
    <g
       style="fill:#ffffff"
       transform="translate(-1)"
       fill-rule="nonzero"
       fill="rgb(0,0,0)"
       id="021---Monitor">
      <path
         style="fill:#ffffff"
         d="m14 54c-.5522847 0-1 .4477153-1 1s.4477153 1 1 1h30c.5522847 0 1-.4477153 1-1s-.4477153-1-1-1z"
         id="Shape" />
      <path
         style="fill:#ffffff"
         d="m21.62 48-2 4h18.76l-2-4z"
         id="path3" />
      <path
         style="fill:#ffffff"
         d="m56 0h-54c-.5950221.06306209-1.03538712.58269281-1 1.18v38.82h4c.55228475 0 1 .4477153 1 1s-.44771525 1-1 1h-4v2.82c-.03538712.5973072.4049779 1.1169379 1 1.18h54c.5950221-.0630621 1.0353871-.5826928 1-1.18v-2.82h-48c-.55228475 0-1-.4477153-1-1s.44771525-1 1-1h48v-38.82c.0353871-.59730719-.4049779-1.11693791-1-1.18zm-52.71 6.29 4-4c.25365857-.25365857.62337399-.35272352.96987804-.25987804s.61715452.36349595.71.71-.00621947.71621947-.25987804.96987804l-4 4c-.1877666.18931265-.44336246.29579832-.71.29579832s-.5222334-.10648567-.71-.29579832c-.18931265-.1877666-.29579832-.44336246-.29579832-.71s.10648567-.5222334.29579832-.71zm11.42-2.58-10 10c-.1877666.1893127-.44336246.2957983-.71.2957983s-.5222334-.1064856-.71-.2957983c-.18931265-.1877666-.29579832-.4433625-.29579832-.71s.10648567-.5222334.29579832-.71l10-10c.2536586-.25365857.623374-.35272352.969878-.25987804.3465041.09284548.6171546.36349595.71.71.0928455.34650405-.0062194.71621947-.259878.96987804z"
         id="path5" />
    </g>
  </g>
</svg>
