<?xml version="1.0" encoding="UTF-8" standalone="no"?>
<svg
   xmlns:dc="http://purl.org/dc/elements/1.1/"
   xmlns:cc="http://creativecommons.org/ns#"
   xmlns:rdf="http://www.w3.org/1999/02/22-rdf-syntax-ns#"
   xmlns:svg="http://www.w3.org/2000/svg"
   xmlns="http://www.w3.org/2000/svg"
   xmlns:sodipodi="http://sodipodi.sourceforge.net/DTD/sodipodi-0.dtd"
   xmlns:inkscape="http://www.inkscape.org/namespaces/inkscape"
   inkscape:version="1.0 (4035a4fb49, 2020-05-01)"
   sodipodi:docname="person-selection.svg"
   id="svg24"
   version="1.1"
   width="395pt"
   viewBox="-2 1 395 395.735"
   height="395pt">
  <metadata
     id="metadata30">
    <rdf:RDF>
      <cc:Work
         rdf:about="">
        <dc:format>image/svg+xml</dc:format>
        <dc:type
           rdf:resource="http://purl.org/dc/dcmitype/StillImage" />
      </cc:Work>
    </rdf:RDF>
  </metadata>
  <defs
     id="defs28" />
  <sodipodi:namedview
     inkscape:current-layer="svg24"
     inkscape:window-maximized="0"
     inkscape:window-y="0"
     inkscape:window-x="0"
     inkscape:cy="263.33333"
     inkscape:cx="263.33333"
     inkscape:zoom="1.3955696"
     showgrid="false"
     id="namedview26"
     inkscape:window-height="480"
     inkscape:window-width="723"
     inkscape:pageshadow="2"
     inkscape:pageopacity="0"
     guidetolerance="10"
     gridtolerance="10"
     objecttolerance="10"
     borderopacity="1"
     bordercolor="#666666"
     pagecolor="#ffffff" />
  <path
     style="fill:#ffffff"
     id="path2"
     d="m166.050781 268.714844c3.90625 0 7.074219-3.167969 7.074219-7.074219v-14.140625h-14.144531v14.140625c0 3.90625 3.167969 7.074219 7.070312 7.074219zm0 0" />
  <path
     style="fill:#ffffff"
     id="path4"
     d="m183.703125 236.09375c2.019531-.285156 4.03125-.539062 6.058594-.882812l.664062-.121094c3.296875-.578125 6.585938-1.222656 9.792969-1.917969l.800781-.175781c3.195313-.707032 6.324219-1.414063 9.292969-2.15625l.535156-.132813c3.050782-.757812 5.949219-1.519531 8.601563-2.25h.097656c-5.914063-5.070312-10.449219-11.554687-13.179687-18.851562-6.050782 10.425781-17.238282 16.796875-29.289063 16.679687h-22.058594c-12.058593.113282-23.246093-6.261718-29.296875-16.695312-2.734375 7.285156-7.273437 13.757812-13.1875 18.820312 11.789063 3.273438 23.761719 5.832032 35.859375 7.65625 1.9375-1.757812 4.457031-2.734375 7.074219-2.738281h21.210938c2.601562.023437 5.105468 1.007813 7.023437 2.765625zm0 0" />
  <path
     style="fill:#ffffff"
     id="path6"
     d="m140.050781 297.835938 10.726563-21.503907c-3.8125-3.941406-5.941406-9.207031-5.9375-14.691406v-11.707031c-14.042969-2.242188-27.929688-5.378906-41.574219-9.390625 3.429687 11.453125 12.585937 31.8125 36.785156 57.292969zm0 0" />
  <path
     style="fill:#ffffff"
     id="path8"
     d="m257.082031 104.65625c1.3125-6.539062 1.25-13.28125-.175781-19.800781-2.378906-.027344-4.695312.753906-6.570312 2.214843-.574219 8.277344-1.738282 16.503907-3.480469 24.613282-.632813 3.164062-1.171875 5.960937-1.546875 8.828125 5.550781-3.855469 9.6875-9.425781 11.773437-15.855469zm0 0" />
  <path
     style="fill:#ffffff"
     id="path10"
     d="m95.671875 83.097656c.449219 8.691406 1.597656 17.332032 3.433594 25.839844 1.441406 6.125 2.214843 12.394531 2.308593 18.6875 0 1.542969-.101562 3.027344-.148437 4.539062.011719.351563 0 .703126-.035156 1.054688-.058594 1.378906-.074219 2.792969-.140625 4.144531-.746094 14.722657-1.289063 25.363281 14.390625 38.765625 4.683593 4.027344 8.972656 8.496094 12.8125 13.335938.070312.085937.132812.164062.199219.253906 2.316406 2.898438 4.398437 5.65625 6.207031 8.203125 7.328125 10.113281 10.679687 14.21875 20.324219 14.21875h22.0625c9.636718 0 12.992187-4.105469 20.308593-14.226563 1.816407-2.511718 3.90625-5.316406 6.230469-8.222656l.191406-.179687c3.84375-4.847657 8.136719-9.320313 12.828125-13.355469 15.675781-13.402344 15.140625-24.042969 14.390625-38.757812-.070312-1.359376-.085937-2.773438-.140625-4.144532-.039062-.351562-.050781-.703125-.035156-1.054687-.058594-1.511719-.148437-2.992188-.148437-4.539063.089843-6.296875.863281-12.5625 2.304687-18.691406 1.84375-8.515625 2.992187-17.167969 3.4375-25.875.507813-11.054688.433594-22.128906-.21875-33.175781-2.417969-46.777344-62.410156-49.8125-64.949219-49.917969h-10.75c-2.261718.105469-62.226562 3.140625-64.644531 49.859375-.65625 11.03125-.730469 22.089844-.226563 33.132813zm0 0" />
  <path
     style="fill:#ffffff"
     id="path12"
     d="m181.496094 308.355469-12.875-25.761719c-1.695313.347656-3.445313.347656-5.140625 0l-12.855469 25.722656c4.679688 4.410156 9.835938 8.941406 15.464844 13.589844 5.625-4.675781 10.78125-9.207031 15.40625-13.550781zm0 0" />
  <path
     style="fill:#ffffff"
     id="path14"
     d="m348.628906 287.863281-48.210937 48.207031c-4.144531 4.140626-10.859375 4.140626-15 0l-5.785157-5.785156c-2.023437-2.019531-5.0625-2.625-7.703124-1.53125-2.644532 1.09375-4.367188 3.671875-4.367188 6.53125-.007812 1.875.738281 3.671875 2.070312 4.992188l18.289063 18.292968c2.761719 2.761719 7.238281 2.761719 10 0l60.714844-60.714843c2.761719-2.761719 2.761719-7.238281 0-10-1.328125-1.324219-3.128907-2.070313-5.003907-2.070313-1.878906.003906-3.679687.75-5.003906 2.078125zm0 0" />
  <path
     style="fill:#ffffff"
     id="path16"
     d="m314.128906 240.429688c-10.144531-.003907-20.1875 1.992187-29.558594 5.867187-.320312.160156-.65625.296875-.996093.402344-26.554688 11.308593-44.648438 36.402343-46.992188 65.164062-2.34375 28.765625 11.453125 56.457031 35.824219 71.910157.304688.15625.597656.332031.878906.53125 28.046875 17.332031 63.976563 15.089843 89.652344-5.597657 25.671875-20.6875 35.503906-55.320312 24.53125-86.410156-10.976562-31.09375-40.371094-51.878906-73.339844-51.867187zm54.5 67.429687-60.71875 60.710937c-8.28125 8.28125-21.710937 8.28125-29.996094 0l-18.285156-18.285156c-8.171875-8.304687-8.121094-21.640625.117188-29.878906 8.234375-8.238281 21.574218-8.296875 29.878906-.125l3.289062 3.292969 45.714844-45.714844c8.304688-8.167969 21.644532-8.113281 29.878906.125 8.238282 8.238281 8.289063 21.574219.121094 29.875zm0 0" />
  <path
     style="fill:#ffffff"
     id="path18"
     d="m228.847656 240.535156c-13.644531 4.015625-27.535156 7.152344-41.582031 9.398438v11.707031c-.003906 5.488281-2.144531 10.753906-5.96875 14.691406l10.765625 21.523438c24.191406-25.4375 33.339844-45.835938 36.785156-57.320313zm0 0" />
  <path
     style="fill:#ffffff"
     id="path20"
     d="m222.199219 318.214844c.027343-30.828125 15.5-59.589844 41.214843-76.597656-6.324218-1.714844-12.765624-2.949219-19.273437-3.699219-2.636719 12.960937-12.472656 41.367187-49.039063 77.023437-6.953124 6.808594-15.238281 14.097656-24.609374 21.65625-.199219.125-.402344.238282-.613282.339844-.3125.210938-.640625.390625-.984375.546875-.78125.316406-1.601562.523437-2.4375.613281-.136719 0-.261719.066406-.398437.066406-.238282-.042968-.472656-.09375-.707032-.15625-.617187-.050781-1.222656-.1875-1.804687-.402343-.636719-.328125-1.277344-.65625-1.914063-.984375-8.683593-6.929688-17.011718-14.289063-24.953124-22.054688-.042969-.050781-.101563-.09375-.148438-.140625-36.136719-35.4375-45.964844-63.644531-48.574219-76.507812-22.488281 2.488281-51.324219 12.253906-67.617187 29.609375-13.253906 14.140625-19.972656 35.503906-19.972656 63.570312.007812 53.242188 119.601562 64.902344 165.683593 64.902344 29.21875-.445312 58.332031-3.558594 86.980469-9.300781-19.59375-17.371094-30.8125-42.300781-30.832031-68.484375zm0 0" />
  <path
     style="fill:#ffffff"
     id="path22"
     d="m86.789062 120.566406c-.367187-2.871094-.914062-5.65625-1.550781-8.839844-1.738281-8.121093-2.898437-16.355468-3.472656-24.640624-1.851563-1.484376-4.171875-2.257813-6.546875-2.1875-1.496094 6.632812-1.5625 13.507812-.199219 20.167968 2.1875 6.28125 6.308594 11.707032 11.769531 15.5zm0 0" />
</svg>
