<?xml version="1.0" encoding="UTF-8" standalone="no"?>
<svg
   xmlns:dc="http://purl.org/dc/elements/1.1/"
   xmlns:cc="http://creativecommons.org/ns#"
   xmlns:rdf="http://www.w3.org/1999/02/22-rdf-syntax-ns#"
   xmlns:svg="http://www.w3.org/2000/svg"
   xmlns="http://www.w3.org/2000/svg"
   xmlns:sodipodi="http://sodipodi.sourceforge.net/DTD/sodipodi-0.dtd"
   xmlns:inkscape="http://www.inkscape.org/namespaces/inkscape"
   inkscape:version="1.0 (4035a4fb49, 2020-05-01)"
   sodipodi:docname="transfer.svg"
   xml:space="preserve"
   style="enable-background:new 0 0 512.001 512.001;"
   viewBox="0 0 512.001 512.001"
   y="0px"
   x="0px"
   id="Capa_1"
   version="1.1"><metadata
   id="metadata49"><rdf:RDF><cc:Work
       rdf:about=""><dc:format>image/svg+xml</dc:format><dc:type
         rdf:resource="http://purl.org/dc/dcmitype/StillImage" /></cc:Work></rdf:RDF></metadata><defs
   id="defs47" /><sodipodi:namedview
   inkscape:current-layer="Capa_1"
   inkscape:window-maximized="0"
   inkscape:window-y="0"
   inkscape:window-x="0"
   inkscape:cy="256.00049"
   inkscape:cx="256.00049"
   inkscape:zoom="1.4355441"
   showgrid="false"
   id="namedview45"
   inkscape:window-height="480"
   inkscape:window-width="723"
   inkscape:pageshadow="2"
   inkscape:pageopacity="0"
   guidetolerance="10"
   gridtolerance="10"
   objecttolerance="10"
   borderopacity="1"
   bordercolor="#666666"
   pagecolor="#ffffff" />
<g
   style="fill:#ffffff"
   id="g12"
   transform="translate(0 -1)">
	<g
   style="fill:#ffffff"
   id="g10">
		<g
   style="fill:#ffffff"
   id="g8">
			<path
   style="fill:#ffffff"
   id="path2"
   d="M164.573,199.723l-70.766,77.806h25.051c5.043,0.015,9.128,4.099,9.143,9.143v182.857h73.143V286.672     c0.015-5.043,4.099-9.128,9.143-9.143h25.051L164.573,199.723z" />
			<path
   style="fill:#ffffff"
   id="path4"
   d="M427.521,144.317c-5.043-0.015-9.128-4.099-9.143-9.143c0.091-46.733-37.656-84.725-84.389-84.937     c-7.515-0.018-14.995,1.028-22.217,3.109c-36.811,10.146-62.299,43.645-62.263,81.828c0,5.049-4.093,9.143-9.143,9.143     s-9.143-4.093-9.143-9.143c0.016-41.264,24.611-78.552,62.537-94.81C261.439,5.343,210.91-6.198,166.589,11.316     C122.267,28.83,93.276,71.794,93.624,119.449c-0.005,4.888,0.27,9.773,0.823,14.629c0,0.182-0.091,0.365,0,0.548     c0,0.183,0.091,0.365,0.091,0.548c-0.037,0.407-0.13,0.807-0.274,1.19c-0.069,0.619-0.192,1.231-0.366,1.829     c-0.206,0.535-0.451,1.054-0.731,1.554c-0.366,0.458-0.64,1.007-1.006,1.463c-0.407,0.388-0.834,0.754-1.28,1.097     c-0.45,0.387-0.941,0.725-1.463,1.007c-0.561,0.236-1.142,0.42-1.737,0.548c-0.378,0.176-0.777,0.299-1.189,0.365     c-0.361,0.076-0.729,0.107-1.097,0.091h-0.914c-22.445-0.124-43.983,8.847-59.703,24.869     C8.81,185.046-0.117,206.657,0.001,229.163c-0.081,46.765,37.716,84.766,84.48,84.937h25.234v-18.286H73.144     c-3.599-0.03-6.847-2.163-8.305-5.453c-1.458-3.29-0.856-7.129,1.539-9.815l91.429-100.571c1.77-1.84,4.213-2.88,6.766-2.88     c2.553,0,4.996,1.04,6.766,2.88l91.429,100.571c2.395,2.686,2.997,6.525,1.539,9.815c-1.458,3.29-4.706,5.423-8.305,5.453H219.43     V314.1h73.143v-82.286c0.015-5.043,4.099-9.128,9.143-9.143h91.429c5.043,0.015,9.128,4.099,9.143,9.143V314.1h27.429     c45.899-1.369,82.372-39.018,82.286-84.937C512.075,182.416,474.268,144.445,427.521,144.317z" />
			<path
   style="fill:#ffffff"
   id="path6"
   d="M384.001,423.815V240.957h-73.143v182.857c-0.015,5.043-4.099,9.128-9.143,9.143h-25.051l70.766,77.806l70.766-77.806     h-25.051C388.101,432.943,384.016,428.858,384.001,423.815z" />
		</g>
	</g>
</g>
<g
   style="fill:#ffffff"
   id="g14">
</g>
<g
   style="fill:#ffffff"
   id="g16">
</g>
<g
   style="fill:#ffffff"
   id="g18">
</g>
<g
   style="fill:#ffffff"
   id="g20">
</g>
<g
   style="fill:#ffffff"
   id="g22">
</g>
<g
   style="fill:#ffffff"
   id="g24">
</g>
<g
   style="fill:#ffffff"
   id="g26">
</g>
<g
   style="fill:#ffffff"
   id="g28">
</g>
<g
   style="fill:#ffffff"
   id="g30">
</g>
<g
   style="fill:#ffffff"
   id="g32">
</g>
<g
   style="fill:#ffffff"
   id="g34">
</g>
<g
   style="fill:#ffffff"
   id="g36">
</g>
<g
   style="fill:#ffffff"
   id="g38">
</g>
<g
   style="fill:#ffffff"
   id="g40">
</g>
<g
   style="fill:#ffffff"
   id="g42">
</g>
</svg>
