<?xml version="1.0" encoding="UTF-8" standalone="no"?>
<svg
   xmlns:dc="http://purl.org/dc/elements/1.1/"
   xmlns:cc="http://creativecommons.org/ns#"
   xmlns:rdf="http://www.w3.org/1999/02/22-rdf-syntax-ns#"
   xmlns:svg="http://www.w3.org/2000/svg"
   xmlns="http://www.w3.org/2000/svg"
   xmlns:sodipodi="http://sodipodi.sourceforge.net/DTD/sodipodi-0.dtd"
   xmlns:inkscape="http://www.inkscape.org/namespaces/inkscape"
   inkscape:version="1.0 (4035a4fb49, 2020-05-01)"
   sodipodi:docname="facebook.svg"
   id="svg4"
   version="1.1"
   width="682.66669pt"
   viewBox="-21 -21 682.66669 682.66669"
   height="682.66669pt">
  <metadata
     id="metadata10">
    <rdf:RDF>
      <cc:Work
         rdf:about="">
        <dc:format>image/svg+xml</dc:format>
        <dc:type
           rdf:resource="http://purl.org/dc/dcmitype/StillImage" />
      </cc:Work>
    </rdf:RDF>
  </metadata>
  <defs
     id="defs8" />
  <sodipodi:namedview
     inkscape:current-layer="svg4"
     inkscape:window-maximized="0"
     inkscape:window-y="0"
     inkscape:window-x="0"
     inkscape:cy="441.51766"
     inkscape:cx="365.59941"
     inkscape:zoom="0.57098526"
     showgrid="false"
     id="namedview6"
     inkscape:window-height="872"
     inkscape:window-width="1506"
     inkscape:pageshadow="2"
     inkscape:pageopacity="0"
     guidetolerance="10"
     gridtolerance="10"
     objecttolerance="10"
     borderopacity="1"
     bordercolor="#666666"
     pagecolor="#ffffff" />
  <path
     id="path2"
     d="m604.671875 0h-569.375c-19.496094.0117188-35.30078125 15.824219-35.296875 35.328125v569.375c.0117188 19.496094 15.824219 35.300781 35.328125 35.296875h306.546875v-247.5h-83.125v-96.875h83.125v-71.292969c0-82.675781 50.472656-127.675781 124.222656-127.675781 35.324219 0 65.679688 2.632812 74.527344 3.808594v86.410156h-50.855469c-40.125 0-47.894531 19.066406-47.894531 47.050781v61.699219h95.9375l-12.5 96.875h-83.4375v247.5h162.796875c19.507813.003906 35.324219-15.804688 35.328125-35.3125 0-.003906 0-.007812 0-.015625v-569.375c-.007812-19.496094-15.824219-35.30078125-35.328125-35.296875zm0 0" />
  <path
     transform="matrix(0.75000002,0,0,0.75000002,-21,-21)"
     id="path12"
     d="M 64.947137,879.42861 C 56.550204,877.4286 43.999345,869.46759 39.084548,863.02395 28.593352,849.26929 29.338543,880.53016 29.338543,454.17728 V 63.911914 l 4.514569,-9.059559 c 4.87543,-9.783713 11.088021,-15.856504 22.42751,-21.922829 L 63.490038,29.07268 H 454.04303 844.59602 l 7.90077,3.657097 c 9.51795,4.405649 18.01384,12.581603 23.25349,22.377809 l 3.87292,7.24091 V 454.65285 846.9572 l -3.87292,7.2409 c -5.23965,9.79621 -13.73554,17.97216 -23.25349,22.37781 -7.71702,3.57204 -10.53828,3.6687 -121.30125,4.15561 l -113.40047,0.49851 V 716.54164 551.85325 h 55.69117 55.69118 l 8.26343,-64.36243 c 4.54489,-35.39934 8.24992,-64.95351 8.23342,-65.67595 -0.0165,-0.72244 -28.79608,-1.31352 -63.95461,-1.31352 h -63.92459 v -45.21367 c 0,-25.17387 0.8469,-49.79502 1.91078,-55.55009 3.45107,-18.66857 11.03397,-28.8364 26.98664,-36.18617 8.33149,-3.8385 11.03214,-4.06189 55.60564,-4.59938 l 46.84884,-0.56494 v -58.34851 -58.34851 l -5.69191,-1.02017 c -12.9396,-2.3192 -77.4122,-5.01699 -99.38961,-4.15886 -13.00384,0.50775 -29.94823,2.25663 -37.65421,3.8864 -62.79408,13.28059 -104.328,54.95167 -118.6896,119.08156 -3.08523,13.77666 -3.63738,23.81881 -4.31141,78.41127 l -0.77301,62.61107 h -55.01619 -55.01618 v 65.67595 65.67595 h 55.1678 55.1678 V 716.48097 881.10869 L 276.71796,880.92942 C 163.29559,880.83082 67.998722,880.15546 64.947137,879.42861 Z"
     style="fill:#ffffff;stroke:#999999;stroke-width:19.8579;stroke-linejoin:round;paint-order:stroke fill markers" />
</svg>
