<?xml version="1.0" encoding="UTF-8" standalone="no"?>
<svg
   xmlns:dc="http://purl.org/dc/elements/1.1/"
   xmlns:cc="http://creativecommons.org/ns#"
   xmlns:rdf="http://www.w3.org/1999/02/22-rdf-syntax-ns#"
   xmlns:svg="http://www.w3.org/2000/svg"
   xmlns="http://www.w3.org/2000/svg"
   xmlns:sodipodi="http://sodipodi.sourceforge.net/DTD/sodipodi-0.dtd"
   xmlns:inkscape="http://www.inkscape.org/namespaces/inkscape"
   sodipodi:docname="logo_rcl.svg"
   inkscape:version="1.0 (4035a4fb49, 2020-05-01)"
   id="svg8"
   version="1.1"
   viewBox="0 0 139.99999 90.000001"
   height="340.15747"
   width="529.13385">
  <defs
     id="defs2">
    <clipPath
       id="clipPath122"
       clipPathUnits="userSpaceOnUse">
      <rect
         y="89.911087"
         x="101.34486"
         height="4.7719493"
         width="19.702009"
         id="rect124"
         style="fill:#10069f;fill-opacity:1;stroke:none;stroke-width:2.9564;stroke-linejoin:round;paint-order:stroke fill markers" />
    </clipPath>
  </defs>
  <sodipodi:namedview
     fit-margin-bottom="0"
     fit-margin-right="0"
     fit-margin-left="0"
     fit-margin-top="0"
     lock-margins="true"
     units="px"
     inkscape:window-maximized="0"
     inkscape:window-y="19"
     inkscape:window-x="873"
     inkscape:window-height="967"
     inkscape:window-width="1518"
     showgrid="false"
     inkscape:document-rotation="0"
     inkscape:current-layer="layer1"
     inkscape:document-units="mm"
     inkscape:cy="11.059021"
     inkscape:cx="154.66992"
     inkscape:zoom="0.7"
     inkscape:pageshadow="2"
     inkscape:pageopacity="0.0"
     borderopacity="1.0"
     bordercolor="#666666"
     pagecolor="#ffffff"
     id="base" />
  <metadata
     id="metadata5">
    <rdf:RDF>
      <cc:Work
         rdf:about="">
        <dc:format>image/svg+xml</dc:format>
        <dc:type
           rdf:resource="http://purl.org/dc/dcmitype/StillImage" />
        <dc:title></dc:title>
      </cc:Work>
    </rdf:RDF>
  </metadata>
  <g
     transform="translate(-29.697421,-29.237722)"
     id="layer1"
     inkscape:groupmode="layer"
     inkscape:label="Layer 1">
    <g
       transform="matrix(7.3245096,0,0,7.3245096,-711.88652,-487.76166)"
       id="g134">
      <rect
         y="49.639679"
         x="98.49778"
         height="18.97467"
         width="21.018095"
         id="rect136"
         style="fill:#000000;fill-opacity:1;stroke:none;stroke-width:0.387459;stroke-linejoin:round;paint-order:stroke fill markers" />
      <g
         transform="matrix(1.0033547,0,0,1.0076991,-0.33965622,-0.54344283)"
         id="g151">
        <g
           id="g143">
          <rect
             y="71.650299"
             x="103.07527"
             height="7.1213932"
             width="16.100542"
             id="rect138"
             style="fill:#ffffff;fill-opacity:1;stroke:none;stroke-width:0.409584;stroke-linejoin:round;paint-order:stroke fill markers" />
          <path
             id="path54"
             d="m 102.45378,79.678198 c -0.22114,-0.068 -0.52882,-0.25058 -0.68431,-0.40607 -0.48675,-0.48675 -0.52256,-0.76291 -0.52256,-4.03058 0,-3.26453 0.043,-3.61912 0.49758,-4.10109 0.53832,-0.57079 0.29103,-0.55557 9.02742,-0.55557 8.72759,0 8.48975,-0.0145 9.02357,0.55148 0.46555,0.49363 0.50143,0.78435 0.50143,4.06285 0,3.31225 -0.035,3.58533 -0.52153,4.07189 -0.55847,0.55846 -0.2994,0.54309 -9.04,0.53655 -6.65463,-0.005 -7.94227,-0.0251 -8.2816,-0.12946 z m 9.85139,-1.86465 c 0.40231,-0.12614 1.02458,-0.59558 1.18379,-0.89307 0.0988,-0.18463 0.0945,-0.18958 -0.57916,-0.66897 l -0.35978,-0.25602 -0.33626,0.27022 c -0.89749,0.72125 -2.02599,0.13224 -2.03265,-1.06092 -0.002,-0.43723 0.27086,-0.98844 0.5809,-1.17159 0.46747,-0.27614 1.18592,-0.15428 1.56591,0.26561 l 0.15861,0.17526 0.50265,-0.39491 c 0.27646,-0.21719 0.5236,-0.4288 0.54921,-0.47024 0.0783,-0.12669 -0.49483,-0.64793 -0.9658,-0.87836 -0.58193,-0.28471 -1.35747,-0.35072 -1.97612,-0.16818 -1.92674,0.56848 -2.58144,3.07926 -1.19066,4.56612 0.45748,0.48908 0.73752,0.65068 1.3661,0.78831 0.51163,0.11203 0.9382,0.0833 1.53326,-0.10326 z m -7.29059,-0.70933 v -0.762 l 0.40217,3.1e-4 0.40216,3.2e-4 0.48578,0.76168 0.48577,0.76169 h 0.80729 0.80728 l -0.61572,-0.91017 c -0.33865,-0.50059 -0.62608,-0.93167 -0.63872,-0.95796 -0.0126,-0.0263 0.12833,-0.20688 0.31328,-0.4013 0.65487,-0.68841 0.68654,-1.73802 0.0735,-2.43621 -0.4725,-0.53815 -0.623,-0.646989 -2.28998,-0.645833 l -1.50283,10e-4 v 2.67522 2.67523 h 0.635 0.635 z m 0,-2.62467 v -0.59266 h 0.62885 c 0.57852,0 0.64291,0.0179 0.80434,0.22308 0.20912,0.26586 0.22332,0.51759 0.0437,0.77408 -0.11739,0.1676 -0.20534,0.18817 -0.80434,0.18817 h -0.67253 z m 12.78467,2.75167 v -0.635 h -1.22767 -1.22767 v -2.0353 -2.03529 l -0.74083,0.0245 -0.74083,0.0245 -0.0224,2.64583 -0.0224,2.64583 h 1.99087 1.99088 z"
             style="fill:#da2c1f;fill-opacity:1;stroke-width:0.0846667"
             sodipodi:nodetypes="ssssssscssssscscsscsssssssccccccccscsssccccccccscssccccccccccccccc" />
          <path
             sodipodi:nodetypes="sssccscscccsscsccsssssssssssccsscssssscsssscsscscsccccccccccscccccscccccccccccccccccccccccsccsccccccccccccccc"
             style="fill:#1309a0;fill-opacity:1;stroke-width:0.0846667"
             d="m 108.58219,96.729206 c 0,-0.91848 0.003,-0.93134 0.19699,-0.93134 0.14391,0 0.29789,0.13952 0.5715,0.51785 l 0.37451,0.51785 0.0252,-0.51785 c 0.0237,-0.48638 0.0378,-0.51785 0.23284,-0.51785 h 0.20762 v 0.93723 c 0,0.91735 -0.004,0.93665 -0.18625,0.91016 -0.10381,-0.0151 -0.33803,-0.221 -0.52916,-0.46525 -0.18861,-0.24101 -0.3715,-0.44104 -0.40642,-0.4445 -0.0349,-0.004 -0.0635,0.20325 -0.0635,0.45936 0,0.44027 -0.0115,0.46567 -0.21167,0.46567 h -0.21166 z m 2.032,0 v -0.93134 h 0.67733 c 0.66604,0 0.67733,0.004 0.67733,0.21167 0,0.20012 -0.0254,0.21167 -0.46566,0.21167 -0.40923,0 -0.46567,0.0205 -0.46567,0.16933 0,0.14676 0.0564,0.16933 0.42333,0.16933 0.36689,0 0.42334,0.0226 0.42334,0.16934 0,0.14675 -0.0565,0.16933 -0.42334,0.16933 -0.36689,0 -0.42333,0.0226 -0.42333,0.16933 0,0.14881 0.0564,0.16934 0.46567,0.16934 0.44026,0 0.46566,0.0115 0.46566,0.21166 0,0.20814 -0.0113,0.21167 -0.67733,0.21167 h -0.67733 z m 2.25777,0.87489 c -0.031,-0.031 -0.0564,-0.3549 -0.0564,-0.71967 v -0.66322 h -0.254 c -0.21449,0 -0.254,-0.0329 -0.254,-0.21167 0,-0.2101 0.006,-0.21167 0.762,-0.21167 0.75635,0 0.762,0.002 0.762,0.21167 0,0.17874 -0.0395,0.21167 -0.254,0.21167 h -0.254 v 0.71966 c 0,0.6975 -0.006,0.71967 -0.19756,0.71967 -0.10865,0 -0.22295,-0.0254 -0.254,-0.0564 z m -9.98324,-3.21158 c -0.22114,-0.068 -0.52882,-0.25058 -0.68431,-0.40607 -0.48675,-0.48675 -0.52256,-0.76291 -0.52256,-4.03058 0,-3.26453 0.043,-3.61912 0.49758,-4.10109 0.53832,-0.57079 0.29103,-0.55557 9.02742,-0.55557 8.72759,0 8.48975,-0.0145 9.02357,0.55148 0.46555,0.49363 0.50143,0.78435 0.50143,4.06285 0,3.31225 -0.035,3.58533 -0.52153,4.07189 -0.55847,0.55846 -0.2994,0.54309 -9.04,0.53655 -6.65463,-0.005 -7.94227,-0.0251 -8.2816,-0.12946 z m 9.85139,-1.86465 c 0.40231,-0.12614 1.02458,-0.59558 1.18379,-0.89307 0.0988,-0.18463 0.0945,-0.18958 -0.57916,-0.66897 l -0.35978,-0.25602 -0.33626,0.27022 c -0.89749,0.72125 -2.02599,0.13224 -2.03265,-1.06092 -0.002,-0.43723 0.27086,-0.98844 0.5809,-1.17159 0.46747,-0.27614 1.18592,-0.15428 1.56591,0.26561 l 0.15861,0.17526 0.50265,-0.39491 c 0.27646,-0.21719 0.5236,-0.4288 0.54921,-0.47024 0.0783,-0.12669 -0.49483,-0.64793 -0.9658,-0.87836 -0.58193,-0.28471 -1.35747,-0.35072 -1.97612,-0.16818 -1.92674,0.56848 -2.58144,3.07926 -1.19066,4.56612 0.45748,0.48908 0.73752,0.65068 1.3661,0.78831 0.51163,0.11203 0.9382,0.0833 1.53326,-0.10326 z m -7.29059,-0.70933 v -0.762 l 0.40217,3.18e-4 0.40216,3.17e-4 0.48578,0.76168 0.48577,0.76169 h 0.80729 0.80728 l -0.61572,-0.91017 c -0.33865,-0.50059 -0.62608,-0.93167 -0.63872,-0.95796 -0.0126,-0.0263 0.12833,-0.20688 0.31328,-0.4013 0.65487,-0.68841 0.68654,-1.73802 0.0735,-2.43621 -0.4725,-0.538155 -0.62336,-0.578565 -2.28998,-0.613395 l -1.50283,-0.0314 v 2.67522 2.67523 h 0.635 0.635 z m 0,-2.62467 v -0.59266 h 0.62885 c 0.57852,0 0.64291,0.0179 0.80434,0.22308 0.20912,0.26586 0.22332,0.51759 0.0437,0.77408 -0.11739,0.1676 -0.20534,0.18817 -0.80434,0.18817 h -0.67253 z m 12.78467,2.75167 v -0.635 h -1.22767 -1.22767 v -2.0353 -2.03529 l -0.74083,0.0245 -0.74083,0.0245 -0.0224,2.64583 -0.0224,2.64583 h 1.99087 1.99088 z"
             id="path54-1"
             clip-path="url(#clipPath122)"
             transform="translate(-0.43494,-14.714318)" />
        </g>
        <text
           id="text128"
           y="82.778481"
           x="110.6782"
           style="font-style:normal;font-variant:normal;font-weight:bold;font-stretch:normal;font-size:2.57603px;line-height:1.25;font-family:Dubai;-inkscape-font-specification:'Dubai Bold';text-align:center;text-anchor:middle;fill:#ffffff;fill-opacity:1;stroke:none;stroke-width:1.09533;stroke-linejoin:round;paint-order:stroke fill markers"
           xml:space="preserve"><tspan
             style="font-style:normal;font-variant:normal;font-weight:bold;font-stretch:normal;font-family:sans-serif;-inkscape-font-specification:'sans-serif Bold';fill:#ffffff;stroke-width:1.09533"
             y="82.778481"
             x="110.6782"
             id="tspan126"
             sodipodi:role="line">NET</tspan></text>
      </g>
    </g>
  </g>
</svg>
